PathFileType	4	(X/Y/Z)	/Users/rkoike/Documents/python/sports2d/webcam_20251024_144952/webcam_20251024_144952_px_person00.trc
DataRate	CameraRate	NumFrames	NumMarkers	Units	OrigDataRate	OrigDataStartFrame	OrigNumFrames
30	30	5	22	m	30	120	962
Frame#	Time	Hip			RHip			RKnee			RAnkle			RBigToe			RSmallToe			RHeel			LHip			LKnee			LAnkle			LBigToe			LSmallToe			LHeel			Neck			Head			Nose			RShoulder			RElbow			RWrist			LShoulder			LElbow			LWrist			
		X1	Y1	Z1	X2	Y2	Z2	X3	Y3	Z3	X4	Y4	Z4	X5	Y5	Z5	X6	Y6	Z6	X7	Y7	Z7	X8	Y8	Z8	X9	Y9	Z9	X10	Y10	Z10	X11	Y11	Z11	X12	Y12	Z12	X13	Y13	Z13	X14	Y14	Z14	X15	Y15	Z15	X16	Y16	Z16	X17	Y17	Z17	X18	Y18	Z18	X19	Y19	Z19	X20	Y20	Z20	X21	Y21	Z21	X22	Y22	Z22
120	4.004162330905308	601.1186708699681	749.6161782714748	0.0	482.13808784321566	743.0189393712981	0.0	485.63041897831874	632.5035277441062	0.0	181.40581050550895	715.0871150593762	0.0			0.0			0.0			0.0	733.9160306585776	736.5409551832605	0.0	881.4598496279413	1026.1094983664282	0.0	1021.932276024585	610.158658450232	0.0	513.93505859375	710.3623046875	0.0	836.0301041541002	273.4706758332129	0.0			0.0	597.430093106825	365.8445297456981	0.0	581.1584225663847	87.71592708620427	0.0	575.1576736783289	236.93839243547504	0.0	389.846903461728	441.4752577716409	0.0	132.77655632073518	549.6313894129629	0.0	34.78648183576882	309.6424016696828	0.0	804.869910319086	436.72135252214207	0.0	1059.858785701722	508.2956942830978	0.0	1105.9933129956369	282.9126772495847	0.0
121	4.037530350329519	598.6342646644798	729.5164136131797	0.0	476.9042295209237	720.774871917771	0.0	485.6305224287122	632.5052307645731	0.0	181.40581050550895	715.0871150593762	0.0			0.0			0.0			0.0	723.2860095435498	715.3394115871248	0.0	913.195808563145	793.2809380256133	0.0	1021.932276024585	610.158658450232	0.0	513.93505859375	710.3623046875	0.0	836.0301041541002	273.4706758332129	0.0			0.0	597.4051974072853	361.31847621084484	0.0	589.1667942443158	84.2104389406743	0.0	578.6809911375799	236.98534648278218	0.0	393.53298955421997	430.2766906471459	0.0	146.20392663546542	545.0691604923953	0.0	35.207602635803	312.8789622719385	0.0	798.1095004421077	433.10827105906156	0.0	1040.8149634642245	515.8966674894125	0.0	1111.9396817650525	310.8089089302628	0.0
122	4.0708983697537295	596.1875358719417	731.3230075915153	0.0	473.68513658372973	723.2101173923501	0.0	485.63088132368443	632.5111270415867	0.0	181.40581050550895	715.0871150593762	0.0			0.0			0.0			0.0	716.1260482869917	716.9925826996647	0.0	926.4458881528784	694.9691869051277	0.0	1021.932276024585	610.158658450232	0.0	513.93505859375	710.3623046875	0.0	836.0301041541002	273.4706758332129	0.0			0.0	596.7530741761708	357.84794461722964	0.0	594.7166821650897	81.63031457542345	0.0	582.0163306030475	235.7342007122345	0.0	397.2101011224992	423.2549347661184	0.0	158.62541023285044	539.7319068258748	0.0	37.07514112518531	318.80310192776136	0.0	792.6620550107937	429.4363997892023	0.0	1023.2877752575671	519.1631660428806	0.0	1114.0614778643917	330.7546594987797	0.0
123	4.10426638917794	593.0971194356723	732.5558635335069	0.0	474.58799865868957	725.6194729119034	0.0	485.63103051936844	632.513555610323	0.0	181.40581050550895	715.0871150593762	0.0			0.0			0.0			0.0	713.0387423703696	718.6085593462701	0.0	935.067372695026	691.6566952319745	0.0	1021.932276024585	610.158658450232	0.0	513.93505859375	710.3623046875	0.0	836.0301041541002	273.4706758332129	0.0			0.0	595.8994279024736	357.85672606536957	0.0	596.9300299594765	82.07472237122417	0.0	582.9943267011093	235.7437598637657	0.0	399.9993217423058	421.5641692857833	0.0	168.47212702868916	531.6220810030056	0.0	39.38489325649715	323.13503735502263	0.0	788.1715606317641	427.3939016770184	0.0	1009.6004390981261	518.7984551626466	0.0	1113.3663615294624	340.39321675090923	0.0
124	4.137634408602151	594.4803390412292	727.8837747676241	0.0	479.4270592564226	722.9105976163961	0.0	485.62947929180115	632.4880263233164	0.0	181.40581050550895	715.0871150593762	0.0			0.0			0.0			0.0	714.186273639992	715.4956307485587	0.0	948.3882745875578	701.8903465923939	0.0	1021.932276024585	610.158658450232	0.0	513.93505859375	710.3623046875	0.0	836.0301041541002	273.4706758332129	0.0			0.0	596.9845643427557	356.6774913136734	0.0	598.0812266800946	82.38016096920391	0.0	583.9717958230954	234.6970353789448	0.0	401.77071852932033	420.76205075238767	0.0	173.73402985774507	523.6319879439321	0.0	41.67736653990219	322.604141986513	0.0	785.9818695068767	425.5183701392753	0.0	1002.3474433528175	516.0212274085243	0.0	1111.4673288174192	339.7322252010752	0.0
